<svg height="512pt" viewBox="-20 0 511 512" width="512pt" xmlns="http://www.w3.org/2000/svg"><path d="m62.15625 77.816406s-10.703125-6.820312-19.578125-17.152344c-6.945313-8.082031-18.351563-11.078124-28.089844-6.753906-11.175781 4.960938-16.550781 17.460938-12.804687 28.835938 3.675781 11.160156 10.671875 25.84375 24 40.578125 2.117187 2.34375 1.820312 5.988281-.671875 7.933593-5.230469 4.085938-13.445313 11.550782-18.40625 21.308594-3.199219 6.292969-2.53125 13.867188 1.554687 19.625l.375.523438c5.863282 8.261718 17.109375 10.507812 25.75 5.214844 8.019532-4.910157 18.710938-9.75 30.261719-10.300782zm0 0" fill="#d67046"/><path d="m459.203125 267.792969c-5.46875-2.472657-11.710937-2.53125-17.234375-.179688-23.15625 9.851563-93.902344 27.710938-175.246094-71.554687l-175.894531 9.539062s-72.636719 70.503906-72.636719 157.988282c0 101.546874 83.375 148.414062 164.613282 148.414062h64.023437c123.089844 0 223.570313-98.917969 224.953125-222.003906.007812-.441406.011719-1.390625.015625-2.621094.027344-8.4375-4.90625-16.105469-12.59375-19.582031zm0 0" fill="#ffe675"/><path d="m49.359375 363.589844c0-87.488282 72.640625-157.992188 72.640625-157.992188l146.070312-7.921875c-.449218-.542969-.894531-1.070312-1.347656-1.617187l-175.894531 9.539062s-72.636719 70.503906-72.636719 157.992188c0 101.542968 83.375 148.410156 164.613282 148.410156h31.167968c-81.238281 0-164.613281-46.867188-164.613281-148.410156zm0 0" fill="#ffb258"/><path d="m174.375 265.308594c43.628906 0 82.835938-19.304688 109.53125-49.816406-5.664062-5.921876-11.394531-12.371094-17.183594-19.433594l-175.894531 9.539062s-7.1875 6.980469-17.035156 19.261719c26.152343 25.042969 61.597656 40.449219 100.582031 40.449219zm0 0" fill="#ffb258"/><path d="m294.152344 119.777344c0 66.152344-53.628906 119.777344-119.777344 119.777344-66.152344 0-119.777344-53.625-119.777344-119.777344s53.625-119.777344 119.777344-119.777344c66.148438 0 119.777344 53.625 119.777344 119.777344zm0 0" fill="#ffe675"/><path d="m113.261719 113.082031c-4.265625 0-7.726563-3.460937-7.726563-7.726562v-19.34375c0-4.265625 3.460938-7.726563 7.726563-7.726563s7.726562 3.460938 7.726562 7.726563v19.34375c0 4.265625-3.460937 7.726562-7.726562 7.726562zm0 0" fill="#3a3c4c"/><path d="m296.34375 336.167969c-27.621094-32.554688-54.4375-59.101563-100.867188-59.101563-46.625 0-84.421874 37.796875-84.421874 84.421875s37.796874 84.421875 84.421874 84.421875h86.46875c40.972657 0 77.199219-27.082031 88.273438-66.527344.105469-.382812.210938-.761718.3125-1.136718 2.21875-8.15625-3.691406-16.242188-12.140625-16.582032-24.226563-.972656-45.882813-6.445312-62.046875-25.496093zm0 0" fill="#ffb258"/></svg>